<?xml version="1.0" encoding="UTF-8" standalone="no"?>
<svg version="1.1" viewBox="0.0 0.0 286.13123359580055 289.98425196850394" fill="none" stroke="none" stroke-linecap="square" stroke-miterlimit="10" xmlns:xlink="http://www.w3.org/1999/xlink" xmlns="http://www.w3.org/2000/svg"><clipPath id="p.0"><path d="m0 0l286.13123 0l0 289.98425l-286.13123 0l0 -289.98425z" clip-rule="nonzero"/></clipPath><g clip-path="url(#p.0)"><path fill="#000000" fill-opacity="0.0" d="m0 0l286.13123 0l0 289.98425l-286.13123 0z" fill-rule="evenodd"/><path fill="#ffffff" d="m9.112861 8.020997l133.95276 0l0 136.34645l-133.95276 0z" fill-rule="evenodd"/><path stroke="#000000" stroke-width="1.0" stroke-linejoin="round" stroke-linecap="butt" d="m9.112861 8.020997l133.95276 0l0 136.34645l-133.95276 0z" fill-rule="evenodd"/><path fill="#ffffff" d="m143.06561 144.99213l133.95276 0l0 136.34647l-133.95276 0z" fill-rule="evenodd"/><path stroke="#000000" stroke-width="1.0" stroke-linejoin="round" stroke-linecap="butt" d="m143.06561 144.99213l133.95276 0l0 136.34647l-133.95276 0z" fill-rule="evenodd"/><path fill="#000000" d="m143.56693 8.020997l133.44882 0l0 136.34645l-133.44882 0z" fill-rule="evenodd"/><path stroke="#000000" stroke-width="1.0" stroke-linejoin="round" stroke-linecap="butt" d="m143.56693 8.020997l133.44882 0l0 136.34645l-133.44882 0z" fill-rule="evenodd"/><path fill="#000000" d="m9.112861 144.99213l133.95276 0l0 136.34647l-133.95276 0z" fill-rule="evenodd"/><path stroke="#000000" stroke-width="1.0" stroke-linejoin="round" stroke-linecap="butt" d="m9.112861 144.99213l133.95276 0l0 136.34647l-133.95276 0z" fill-rule="evenodd"/><path fill="#000000" fill-opacity="0.0" d="m24.057743 27.779528l104.06299 0l0 98.07874l-104.06299 0z" fill-rule="evenodd"/><path fill="#000000" d="m108.17529 52.98452q0.28125 -0.953125 1.015625 -1.421875q0.734375 -0.484375 1.625 -0.484375q1.171875 0 2.015625 0.703125q0.84375 0.6875 0.84375 1.875q0 0.5 -0.21875 1.171875l-16.578125 46.703125q-0.375 1.03125 -1.25 1.578125q-0.875 0.546875 -1.984375 0.546875q-1.015625 0 -1.90625 -0.546875q-0.875 -0.546875 -1.234375 -1.578125l-14.375 -40.625l-14.515625 40.625q-0.375 1.03125 -1.25 1.578125q-0.875 0.546875 -1.90625 0.546875q-1.03125 0 -1.921875 -0.546875q-0.875 -0.546875 -1.234375 -1.578125l-16.640625 -46.703125q-0.21875 -0.59375 -0.21875 -1.109375q0 -1.171875 0.90625 -1.90625q0.921875 -0.734375 2.09375 -0.734375q0.875 0 1.640625 0.484375q0.78125 0.46875 1.078125 1.421875l14.4375 41.65625l14.671875 -41.21875q0.359375 -1.09375 1.171875 -1.640625q0.8125 -0.546875 1.765625 -0.546875q0.953125 0 1.75 0.59375q0.8125 0.578125 1.171875 1.671875l14.453125 41.28125l14.59375 -41.796875z" fill-rule="nonzero"/><path fill="#000000" fill-opacity="0.0" d="m158.0105 164.12599l104.06299 0l0 98.07872l-104.06299 0z" fill-rule="evenodd"/><path fill="#000000" d="m210.04413 240.1591q-10.125 0 -15.328125 -5.28125q-5.203125 -5.28125 -5.203125 -15.546875l0 -28.75q0 -1.390625 0.796875 -2.234375q0.8125 -0.84375 2.203125 -0.84375q1.328125 0 2.125 0.84375q0.8125 0.84375 0.8125 2.234375l0 29.265625q0 7.546875 3.703125 11.359375q3.703125 3.8125 10.890625 3.8125q7.1875 0 10.84375 -3.8125q3.671875 -3.8125 3.671875 -11.359375l0 -29.265625q0 -1.390625 0.84375 -2.234375q0.84375 -0.84375 2.15625 -0.84375q1.40625 0 2.203125 0.84375q0.8125 0.84375 0.8125 2.234375l0 28.75q0 10.1875 -5.25 15.515625q-5.234375 5.3125 -15.28125 5.3125z" fill-rule="nonzero"/></g></svg>